<?xml version="1.0" standalone="no"?>
<!DOCTYPE svg PUBLIC "-//W3C//DTD SVG 20010904//EN"
 "http://www.w3.org/TR/2001/REC-SVG-20010904/DTD/svg10.dtd">
<svg version="1.0" xmlns="http://www.w3.org/2000/svg"
 width="358.000000pt" height="358.000000pt" viewBox="0 0 358.000000 358.000000"
 preserveAspectRatio="xMidYMid meet">
<metadata>
Created by potrace 1.14, written by Peter Selinger 2001-2017
</metadata>
<g transform="translate(0.000000,358.000000) scale(0.100000,-0.100000)"
fill="#000000" stroke="none">
<path d="M728 2665 c-2 -2 -19 -7 -38 -10 -76 -13 -148 -45 -210 -94 -61 -48
-84 -76 -119 -141 -125 -234 -26 -579 240 -842 91 -89 216 -182 294 -217 11
-5 45 -20 75 -34 189 -85 372 -103 569 -55 8 1 38 15 68 30 l53 27 0 -305 c0
-340 2 -348 66 -379 70 -33 158 -3 179 61 6 18 10 155 10 327 l0 295 45 -23
c114 -57 292 -76 435 -45 385 81 719 370 840 725 40 119 44 262 9 364 -43 126
-114 207 -230 262 -154 73 -349 75 -559 4 -253 -84 -501 -292 -635 -528 l-33
-58 -26 48 c-72 131 -214 293 -319 365 -26 17 -49 34 -52 38 -19 24 -215 121
-290 143 -92 28 -197 45 -285 45 -46 0 -85 -1 -87 -3z"/>
</g>
</svg>
